<?xml version="1.0" encoding="UTF-8"?>
<svg width="174px" height="72px" viewBox="0 0 174 72" version="1.1" xmlns="http://www.w3.org/2000/svg" xmlns:xlink="http://www.w3.org/1999/xlink">
    <title>Group 63</title>
    <defs>
        <polygon id="path-1" points="0 0 72.0025852 0 72.0025852 67.4628762 0 67.4628762"></polygon>
        <polygon id="path-3" points="0 70 173.171492 70 173.171492 0 0 0"></polygon>
    </defs>
    <g id="Page-1" stroke="none" stroke-width="1" fill="none" fill-rule="evenodd">
        <g id="Group-63" transform="translate(-0.000000, 1.000000)">
            <g id="Group-3" transform="translate(0.000000, 1.377627)">
                <mask id="mask-2" fill="white">
                    <use xlink:href="#path-1"></use>
                </mask>
                <g id="Clip-2"></g>
                <path d="M48.3471354,48.4624758 C51.2455739,45.0181049 52.6950977,40.1181171 52.6950977,33.7667775 C52.6950977,27.419703 51.2455739,22.5319012 48.3471354,19.1039813 C45.448697,15.6778894 41.2951012,13.9621016 35.8881761,13.9621016 C30.4794231,13.9621016 26.3154692,15.6778894 23.3963146,19.1039813 C20.4753321,22.5319012 19.0166687,27.419703 19.0166687,33.7667775 C19.0166687,40.1181171 20.4753321,45.0181049 23.3963146,48.4624758 C26.3154692,51.9074561 30.4794231,53.6311648 35.8881761,53.6311648 C41.2951012,53.6311648 45.448697,51.9074561 48.3471354,48.4624758 M63.0824382,57.5727243 C57.1338457,64.1665651 48.10829,67.4628762 36.0015058,67.4628762 C23.8935031,67.4628762 14.8667288,64.1665651 8.91813624,57.5727243 C2.97137162,50.9794927 -0.000182789896,43.0415368 -0.000182789896,33.7600752 C-0.000182789896,24.6345943 2.97137162,16.7277127 8.91813624,10.0382118 C14.8667288,3.3462737 23.8935031,0 36.0015058,0 C48.10829,0 57.1338457,3.3462737 63.0824382,10.0382118 C69.0292029,16.7277127 72.0025852,24.6345943 72.0025852,33.7600752 C72.0025852,43.0415368 69.0292029,50.9794927 63.0824382,57.5727243" id="Fill-1" fill="#0054A3" mask="url(#mask-2)"></path>
            </g>
            <path d="M74.0617743,16.789191 C74.2037411,16.9597949 74.4626935,17.0444876 74.8355848,17.0444876 C75.1213464,17.0444876 75.3583639,16.994525 75.5448096,16.8952092 C75.7312553,16.7958933 75.8835802,16.6722055 76.0017844,16.5229271 C76.1193792,16.3736487 76.2095556,16.2079192 76.2717041,16.0269572 C76.3338527,15.843558 76.3899083,15.6741727 76.4398708,15.516364 L76.7201487,14.5603729 C76.1602023,14.6188657 75.730646,14.6718747 75.4320892,14.7218373 C75.1341417,14.7717999 74.8794544,14.8430879 74.6680274,14.9338736 C74.3694706,15.0581707 74.1574343,15.2427885 74.0337465,15.4913828 C73.9088401,15.7393677 73.8460822,15.9800411 73.8460822,16.211575 C73.8460822,16.4278763 73.9185889,16.6198057 74.0617743,16.789191 M78.914846,17.7031405 C78.6967167,17.7622426 78.3884111,17.791489 77.9905384,17.791489 C77.6535957,17.791489 77.3769737,17.7598054 77.1588444,17.6988754 C76.9407151,17.6379454 76.7695019,17.5593458 76.6452048,17.4667322 C76.5202984,17.3729001 76.4295127,17.2748028 76.3746758,17.1724405 C76.3186202,17.0712968 76.2771878,16.9878227 76.2528158,16.9226276 C75.9548683,17.2699285 75.610614,17.5124297 75.2194436,17.6489128 C74.8282732,17.785396 74.3286475,17.8542468 73.7205665,17.8542468 C72.9693,17.8542468 72.371577,17.7134986 71.9267883,17.4326115 C71.4826088,17.1505057 71.2602145,16.7623818 71.2602145,16.264584 C71.2602145,15.866102 71.432037,15.4986944 71.7744634,15.1587052 C72.1168898,14.8193252 72.6116411,14.582917 73.2593266,14.450699 C73.5463068,14.3922062 73.9009192,14.3428529 74.3249917,14.3020298 C74.7478457,14.2605975 75.15303,14.2234302 75.5393259,14.1893094 C75.8256968,14.1643281 76.0584492,14.141784 76.2394112,14.1216771 C76.4203732,14.100961 76.5635587,14.0650123 76.6695768,14.015659 C76.7749856,13.9656964 76.8499295,13.8937991 76.8937991,13.7987483 C76.9376686,13.7030883 76.9589941,13.5690424 76.9589941,13.3947827 C76.9589941,13.2040719 76.9096409,13.0493098 76.810325,12.9286684 C76.7103999,12.8092457 76.5830562,12.7111484 76.4276848,12.6368139 C76.2717041,12.5624793 76.0980537,12.5100796 75.905515,12.4820518 C75.7129763,12.4521961 75.5228748,12.4381822 75.3364292,12.4381822 C74.9513518,12.4381822 74.6003952,12.4796146 74.2829501,12.5624793 C73.9655049,12.6441255 73.6584179,12.7598924 73.3598611,12.9073429 L73.2660289,12.9073429 C73.2910102,12.742832 73.3098985,12.6160977 73.3226938,12.5295771 C73.3348798,12.4424473 73.3476751,12.3315548 73.3598611,12.199946 C74.380438,11.8185245 75.4698658,11.6278137 76.6281444,11.6278137 C76.9900684,11.6278137 77.3422436,11.6527949 77.6840607,11.7021482 C78.0264871,11.7521108 78.3354021,11.8355848 78.6095869,11.9507425 C78.8831624,12.0659001 79.1043382,12.2212715 79.2718956,12.4156381 C79.4406716,12.6093954 79.524755,12.8512874 79.524755,13.1400954 C79.524755,13.322276 79.4967272,13.521517 79.4388437,13.7353812 C79.3821789,13.9498546 79.3291698,14.1283794 79.2792072,14.2685184 L78.7747071,15.8185767 C78.6741727,16.1073847 78.6132427,16.3212489 78.5876521,16.457732 C78.5632801,16.5942151 78.5498755,16.7032798 78.5498755,16.7867538 C78.5498755,16.8854604 78.5809498,16.9926971 78.6430984,17.108464 C78.7058562,17.2248403 78.8429487,17.2815051 79.0549849,17.2815051 C79.1171335,17.2815051 79.1701426,17.2748028 79.2134029,17.2565239 C79.2566631,17.2406821 79.3041885,17.2248403 79.3541511,17.2071706 L79.5040388,17.4935414 C79.3291698,17.5751876 79.1329753,17.6458663 78.914846,17.7031405" id="Fill-4" fill="#0054A3"></path>
            <path d="M80.9782393,15.9043661 C81.0592762,15.6752694 81.1378758,15.4486099 81.2128197,15.2237784 C81.3992654,14.6674878 81.5552461,14.2032014 81.6795432,13.8278728 C81.8050589,13.4543722 81.9037655,13.1405828 81.9787093,12.8871142 C82.0536532,12.6342548 82.1097088,12.4197813 82.1462667,12.2461309 C82.1846526,12.0712619 82.2157269,11.900658 82.2400989,11.7337099 C82.4393399,11.7519889 82.6483296,11.7666121 82.8670682,11.7787981 C83.0851975,11.7922027 83.3435406,11.7995143 83.6427067,11.7995143 C83.9790401,11.7995143 84.2568807,11.7922027 84.4737914,11.7787981 C84.69253,11.7666121 84.8948175,11.7519889 85.0818725,11.7337099 C84.9076128,12.1096478 84.7613808,12.4307487 84.6431767,12.7024964 C84.5243633,12.9724161 84.4183451,13.2234476 84.324513,13.4513257 C84.2318994,13.6816409 84.1441603,13.9076911 84.0625141,14.133132 C83.9826959,14.3561356 83.8852079,14.6205717 83.7737061,14.9197378 C83.6987623,15.1439601 83.6366137,15.3316244 83.5866511,15.4815121 C83.5366885,15.6313998 83.4934283,15.7581342 83.4550424,15.8617151 C83.4178751,15.9665146 83.3935031,16.0548631 83.3807078,16.1243232 C83.3679125,16.1956113 83.3624288,16.2632436 83.3624288,16.3308758 C83.3624288,16.5136657 83.4586982,16.6672092 83.6518462,16.792725 C83.8449942,16.9176314 84.1100395,16.97978 84.4469822,16.97978 C84.6084466,16.97978 84.7924551,16.9572359 84.9983984,16.9109291 C85.2043417,16.8664502 85.4096757,16.7890692 85.6144004,16.6806138 C85.8203436,16.5727678 86.0201939,16.4277545 86.2127326,16.249839 C86.4058806,16.0707049 86.5710008,15.8483105 86.7093118,15.5814373 C86.833609,15.3316244 86.9603433,15.0422071 87.091952,14.7125759 C87.2223421,14.3847727 87.3435928,14.0447835 87.4575318,13.6950455 C87.5684244,13.3453075 87.6707867,12.9998346 87.7640095,12.6592361 C87.8578417,12.3186376 87.9303483,12.0091134 87.9803109,11.7337099 C88.1539613,11.7519889 88.3276117,11.7666121 88.5036993,11.7787981 C88.6767404,11.7922027 88.9216789,11.7995143 89.2324217,11.7995143 C89.5699737,11.7995143 89.8386749,11.7922027 90.0458367,11.7787981 C90.2505614,11.7666121 90.4473652,11.7519889 90.6332016,11.7337099 C90.3974026,12.3332608 90.1878036,12.8919886 90.0074509,13.4105026 C89.8270982,13.9320631 89.6631966,14.4310795 89.5114809,14.9069425 C89.3628118,15.3852428 89.2263287,15.8550128 89.1020316,16.3174712 C88.9777344,16.7781018 88.8516094,17.2375137 88.7285309,17.6944884 C88.5414759,17.6774281 88.3562488,17.6695072 88.1765054,17.6695072 L87.4745922,17.6695072 L86.7275908,17.6695072 C86.5161638,17.6695072 86.3224066,17.6774281 86.1481469,17.6944884 C86.2596487,17.5275403 86.343732,17.3806991 86.3997876,17.250309 C86.4558432,17.1223561 86.5161638,16.9450499 86.5783124,16.7189997 C86.465592,16.8116133 86.3193601,16.9237244 86.1390074,17.057161 C85.9580454,17.189379 85.7338231,17.3161134 85.4651219,17.437364 C85.1970301,17.5561774 84.8765385,17.6573212 84.5024285,17.7359208 C84.1283185,17.8139112 83.6926693,17.854125 83.1936528,17.854125 C82.4460422,17.854125 81.8690354,17.7389673 81.4650697,17.5110893 C81.0598855,17.2832112 80.857598,16.9773428 80.857598,16.5947026 C80.857598,16.3625594 80.8978117,16.1322441 80.9782393,15.9043661" id="Fill-6" fill="#0054A3"></path>
            <path d="M94.8511394,17.7980694 C94.6031544,17.8364553 94.3283603,17.854125 94.0285849,17.854125 C93.717842,17.854125 93.4235503,17.8248786 93.1505841,17.7676044 C92.8776178,17.7097209 92.6326794,17.6262469 92.4218617,17.5190101 C92.2086068,17.4123827 92.0410494,17.2734624 91.9179709,17.1028585 C91.7924551,16.9334732 91.7296973,16.7421531 91.7296973,16.5252424 C91.7296973,16.4259266 91.7363996,16.3266107 91.7485856,16.2285135 C91.7619901,16.1291976 91.7863621,16.0170865 91.8223108,15.8933987 C91.8594781,15.7691015 91.903957,15.627744 91.9533102,15.471154 C92.0044914,15.3133454 92.0672493,15.1238532 92.1415838,14.9002402 C92.278067,14.4779956 92.4182059,14.0594067 92.5620006,13.6456923 C92.7045767,13.2325871 92.8447156,12.8133889 92.9818081,12.3917536 C92.8075484,12.3917536 92.6241492,12.3941908 92.4303919,12.3972373 C92.2378532,12.4021117 91.9971798,12.4082047 91.710809,12.4161256 C91.7619901,12.3046237 91.7973295,12.2089637 91.8223108,12.1273175 C91.8479014,12.0450621 91.879585,11.9146719 91.9179709,11.7337099 C92.0532354,11.7489424 92.1824069,11.7599098 92.300611,11.7666121 C92.4182059,11.774533 92.5278798,11.7769702 92.6271957,11.7769702 L93.1694723,11.7769702 C93.2194349,11.5953989 93.2687882,11.3864091 93.3181415,11.1493916 C93.3687133,10.9135926 93.4235503,10.6619518 93.4869175,10.3981251 C93.7988789,10.3231812 94.0633149,10.2585955 94.2808349,10.2061957 C94.4995735,10.151968 94.7085633,10.0977404 94.9065857,10.0435127 C95.1064359,9.98928503 95.3135978,9.92835507 95.5250248,9.85706701 C95.7364518,9.78638825 95.9917483,9.70169559 96.2903052,9.60237975 L96.4401929,9.71388159 C96.3396584,9.91312257 96.2567937,10.092866 96.1891614,10.255549 C96.1197013,10.4157948 96.0538969,10.5760406 95.9917483,10.7338492 C95.9295998,10.8898299 95.8723256,11.0525129 95.8235816,11.2170238 C95.7742284,11.3839719 95.7181728,11.5704176 95.6554149,11.7769702 L96.34697,11.7769702 C96.4712672,11.7769702 96.6156712,11.774533 96.775917,11.7666121 C96.9398186,11.7599098 97.1201713,11.7489424 97.3194123,11.7337099 C97.2438591,11.8543513 97.1951152,11.9749926 97.1701339,12.0950246 C97.1445433,12.2144474 97.1250457,12.3229027 97.1146876,12.4161256 C96.9392093,12.4100326 96.775917,12.4039396 96.6266386,12.4008931 C96.4779695,12.3972373 96.3360026,12.3948001 96.1976916,12.3948001 L95.4695785,12.3948001 C95.4183974,12.5440785 95.334314,12.7902355 95.2161099,13.1332712 C95.0979058,13.4763069 94.9760458,13.836403 94.8511394,14.2129502 C94.726233,14.5888881 94.6147311,14.9361889 94.514806,15.2548526 C94.4148808,15.5729071 94.352123,15.7825061 94.3283603,15.8812127 C94.2649931,16.087156 94.2223421,16.2510576 94.1973609,16.3716989 C94.1723796,16.4911216 94.158975,16.6044514 94.158975,16.7122974 C94.158975,16.9359104 94.2503699,17.0925004 94.4307226,17.1845046 C94.6116846,17.274681 94.8651533,17.3191599 95.1886914,17.3191599 C95.3879324,17.3191599 95.5810804,17.3039274 95.7681354,17.2698066 L95.5993594,17.6810839 C95.3507651,17.7212976 95.0997336,17.7609021 94.8511394,17.7980694" id="Fill-8" fill="#0054A3"></path>
            <path d="M99.9254478,16.4033216 C99.9626151,16.5861114 100.035122,16.7494038 100.139312,16.8956357 C100.245939,17.0400397 100.395218,17.1570252 100.588975,17.2490295 C100.782732,17.3398151 101.033764,17.3849033 101.345725,17.3849033 C101.707649,17.3849033 102.031187,17.317271 102.318168,17.1795693 C102.605148,17.0443048 102.852523,16.8639521 103.065169,16.6403391 C103.277205,16.4167261 103.458167,16.1669133 103.606836,15.8890726 C103.756115,15.611232 103.877975,15.3333914 103.971807,15.05616 C104.06503,14.7783194 104.13449,14.5138833 104.177141,14.2616333 C104.22162,14.0087739 104.243554,13.7985655 104.243554,13.6340546 C104.243554,13.4597949 104.224057,13.2818794 104.18689,13.0990895 C104.150332,12.9175182 104.075997,12.7542259 103.971807,12.6092126 C103.865179,12.4654179 103.71651,12.3453859 103.522753,12.2552095 C103.330824,12.1638146 103.076746,12.1175078 102.765394,12.1175078 C102.405297,12.1175078 102.080541,12.1863587 101.792951,12.3228418 C101.50719,12.4605435 101.259814,12.6396776 101.047778,12.8632906 C100.833304,13.0881221 100.652952,13.3385443 100.504892,13.6163849 C100.355004,13.8923977 100.233144,14.1702383 100.139312,14.4474697 C100.04548,14.7253103 99.976629,14.9903557 99.9345873,15.243215 C99.8894992,15.4960744 99.868783,15.7038456 99.868783,15.8695751 C99.868783,16.0438348 99.8876713,16.2217503 99.9254478,16.4033216 M97.7246575,13.8278119 C98.0049353,13.3878976 98.3881848,13.0046481 98.8744059,12.6774542 C99.3606271,12.3508696 99.9345873,12.0949637 100.595677,11.9079087 C101.257986,11.721463 101.969039,11.6282402 102.730054,11.6282402 C103.40333,11.6282402 103.991914,11.6922166 104.497632,11.8207789 C105.002742,11.9487318 105.427424,12.1309124 105.770459,12.3679299 C106.113495,12.6037289 106.371229,12.8846161 106.547316,13.21181 C106.720358,13.5390039 106.808706,13.9027558 106.808706,14.2994098 C106.808706,14.8051286 106.658209,15.2748986 106.359043,15.7105478 C106.059877,16.1461971 105.657739,16.5251815 105.151411,16.8481103 C104.645692,17.1704298 104.061374,17.4190241 103.393581,17.5926745 C102.726398,17.7663249 102.017783,17.854064 101.270172,17.854064 C100.671231,17.854064 100.128345,17.7931341 99.6427328,17.6743206 C99.1552931,17.5542886 98.7373135,17.378201 98.3881848,17.1454485 C98.0378375,16.914524 97.7715736,16.6354647 97.5845186,16.3131452 C97.3974636,15.9902164 97.3036314,15.6337761 97.3036314,15.2444336 C97.3036314,14.7387149 97.4437703,14.2658984 97.7246575,13.8278119" id="Fill-10" fill="#0054A3"></path>
            <path d="M110.991609,16.7645144 C111.26031,16.9936111 111.605783,17.1075501 112.028637,17.1075501 C112.327803,17.1075501 112.603816,17.0417457 112.85241,16.9076998 C113.101614,16.7754818 113.321571,16.6018314 113.515938,16.3897951 C113.709695,16.1765402 113.874815,15.9407413 114.012517,15.6823982 C114.148391,15.4240552 114.260502,15.1651028 114.347632,14.9067597 C114.434152,14.6484167 114.500566,14.4046968 114.544435,14.1756002 C114.588914,13.9452849 114.61024,13.7606671 114.61024,13.618091 C114.61024,13.2854134 114.484115,13.0124471 114.23552,12.7991922 C113.986317,12.5865467 113.631095,12.4811378 113.170465,12.4811378 C112.859113,12.4811378 112.578835,12.5463329 112.329022,12.6748951 C112.079209,12.8034573 111.858642,12.9704054 111.664885,13.1745208 C111.472956,13.3792455 111.310273,13.6089515 111.179273,13.8618108 C111.048883,14.1171074 110.937991,14.3699667 110.85147,14.6203889 C110.76434,14.8695925 110.699755,15.1078286 110.655885,15.3314416 C110.611406,15.5568825 110.59069,15.7457654 110.59069,15.8956531 C110.59069,16.2453911 110.723517,16.5341991 110.991609,16.7645144 M116.909127,15.3765298 C116.703184,15.8335045 116.41072,16.2453911 116.029908,16.6109709 C115.650314,16.9765507 115.185419,17.272061 114.637658,17.4968926 C114.087461,17.7211148 113.478161,17.833226 112.804885,17.833226 C112.232143,17.833226 111.711192,17.7576728 111.244468,17.6041293 C110.777136,17.4524137 110.405463,17.2361123 110.131278,16.9558345 C109.60728,18.2250057 109.197831,19.5264697 108.898665,20.860836 C108.548927,20.8321989 108.138259,20.818185 107.664224,20.818185 C107.427206,20.818185 107.203593,20.8218408 106.991557,20.8309803 C106.779521,20.8407291 106.586982,20.8492593 106.411504,20.860836 C106.535801,20.5043957 106.683251,20.0693557 106.852027,19.5581533 C107.018975,19.0475602 107.193844,18.5071114 107.374197,17.9380255 C107.55455,17.3695489 107.739168,16.7791376 107.925613,16.1686193 C108.112668,15.5581011 108.289974,14.9750013 108.45936,14.4168828 C108.626917,13.8612015 108.776805,13.3451247 108.907804,12.8723082 C109.037585,12.3994917 109.134464,12.0125864 109.197831,11.7134203 C109.372091,11.7304807 109.551834,11.7451038 109.73828,11.7585084 C109.925335,11.7713037 110.156869,11.7767874 110.431053,11.7767874 C110.716815,11.7767874 110.962972,11.7713037 111.169525,11.7585084 C111.374859,11.7451038 111.56496,11.7304807 111.739829,11.7134203 C111.664276,11.8578243 111.599081,11.9997911 111.543635,12.13993 C111.48636,12.2812875 111.428477,12.4202079 111.365719,12.5554724 C111.702052,12.2483854 112.084693,12.0107585 112.514858,11.8401546 C112.945024,11.6707693 113.459273,11.584858 114.056386,11.584858 C114.33179,11.584858 114.650453,11.6189788 115.011768,11.6853925 C115.372474,11.7518061 115.717946,11.8712289 116.048796,12.0460979 C116.377818,12.2209669 116.656877,12.4677332 116.8811,12.7833505 C117.105322,13.0989677 117.217433,13.5053705 117.217433,14.004387 C117.217433,14.4625803 117.114461,14.919555 116.909127,15.3765298" id="Fill-12" fill="#0054A3"></path>
            <path d="M120.802308,16.789191 C120.945494,16.9597949 121.203228,17.0444876 121.576728,17.0444876 C121.86249,17.0444876 122.098289,16.994525 122.285344,16.8952092 C122.471789,16.7958933 122.625333,16.6722055 122.743537,16.5229271 C122.861741,16.3736487 122.95009,16.2079192 123.012848,16.0269572 C123.074996,15.843558 123.130442,15.6741727 123.181624,15.516364 L123.460073,14.5603729 C122.901346,14.6188657 122.471789,14.6718747 122.173842,14.7218373 C121.875894,14.7717999 121.621207,14.8430879 121.407952,14.9338736 C121.110005,15.0581707 120.897968,15.2427885 120.77489,15.4913828 C120.650593,15.7393677 120.587835,15.9800411 120.587835,16.211575 C120.587835,16.4278763 120.659123,16.6198057 120.802308,16.789191 M125.656599,17.7031405 C125.43786,17.7622426 125.129555,17.791489 124.731073,17.791489 C124.394739,17.791489 124.116898,17.7598054 123.901206,17.6988754 C123.683077,17.6379454 123.510645,17.5593458 123.386348,17.4667322 C123.261442,17.3729001 123.171265,17.2748028 123.11521,17.1724405 C123.059764,17.0712968 123.020159,16.9878227 122.993959,16.9226276 C122.696012,17.2699285 122.351757,17.5124297 121.959978,17.6489128 C121.569417,17.785396 121.069791,17.8542468 120.462319,17.8542468 C119.709834,17.8542468 119.112111,17.7134986 118.668541,17.4326115 C118.223143,17.1505057 118.001358,16.7623818 118.001358,16.264584 C118.001358,15.866102 118.172571,15.4986944 118.514388,15.1587052 C118.857424,14.8193252 119.352784,14.582917 120.00047,14.450699 C120.28745,14.3922062 120.642672,14.3428529 121.066135,14.3020298 C121.488989,14.2605975 121.893564,14.2234302 122.281079,14.1893094 C122.56684,14.1643281 122.800202,14.141784 122.980555,14.1216771 C123.161517,14.100961 123.304093,14.0650123 123.411329,14.015659 C123.516129,13.9656964 123.591073,13.8937991 123.633724,13.7987483 C123.678203,13.7030883 123.700747,13.5690424 123.700747,13.3947827 C123.700747,13.2040719 123.650175,13.0493098 123.551468,12.9286684 C123.451543,12.8092457 123.324809,12.7111484 123.168219,12.6368139 C123.012848,12.5624793 122.839197,12.5100796 122.647268,12.4820518 C122.454729,12.4521961 122.264018,12.4381822 122.078182,12.4381822 C121.692495,12.4381822 121.341539,12.4796146 121.022875,12.5624793 C120.707867,12.6441255 120.398343,12.7598924 120.100395,12.9073429 L120.006563,12.9073429 C120.032154,12.742832 120.050433,12.6160977 120.062619,12.5295771 C120.074805,12.4424473 120.088209,12.3315548 120.100395,12.199946 C121.121581,11.8185245 122.212228,11.6278137 123.369288,11.6278137 C123.731821,11.6278137 124.083996,11.6527949 124.424595,11.7021482 C124.767631,11.7521108 125.075936,11.8355848 125.350121,11.9507425 C125.624306,12.0659001 125.846091,12.2212715 126.013039,12.4156381 C126.181815,12.6093954 126.267117,12.8512874 126.267117,13.1400954 C126.267117,13.322276 126.237871,13.521517 126.179987,13.7353812 C126.123322,13.9498546 126.070922,14.1283794 126.019741,14.2685184 L125.51585,15.8185767 C125.415925,16.1073847 125.354386,16.3212489 125.328796,16.457732 C125.303205,16.5942151 125.291628,16.7032798 125.291628,16.7867538 C125.291628,16.8854604 125.322093,16.9926971 125.384851,17.108464 C125.448218,17.2248403 125.583483,17.2815051 125.796128,17.2815051 C125.858886,17.2815051 125.910677,17.2748028 125.954546,17.2565239 C125.998416,17.2406821 126.044723,17.2248403 126.095294,17.2071706 L126.245182,17.4935414 C126.070922,17.5751876 125.874119,17.6458663 125.656599,17.7031405" id="Fill-14" fill="#0054A3"></path>
            <path d="M133.613687,13.2253364 C133.475985,13.183904 133.277353,13.1637972 133.015354,13.1637972 C132.629058,13.1637972 132.306739,13.2113225 132.051442,13.3069826 C131.796755,13.4020333 131.588375,13.5202375 131.425692,13.6609857 C131.263618,13.8035618 131.138711,13.9546681 131.052191,14.1161325 C130.964452,14.2775969 130.89621,14.4250474 130.847466,14.5572655 C130.734136,14.8241387 130.603746,15.198858 130.453249,15.6856884 C130.303971,16.1706909 130.117525,16.8366555 129.893912,17.6829727 C129.705639,17.6695681 129.494212,17.6628658 129.258413,17.6628658 L128.527862,17.6628658 L127.836307,17.6628658 C127.611476,17.6628658 127.406751,17.6695681 127.219087,17.6829727 C127.643159,16.6721446 128.025799,15.6576606 128.370054,14.6407395 C128.71248,13.6238184 128.988493,12.6550319 129.201139,11.7337709 C129.376617,11.7520499 129.566109,11.766673 129.772052,11.778859 C129.976777,11.7922636 130.205264,11.7995752 130.453249,11.7995752 C130.703062,11.7995752 130.918754,11.7922636 131.099107,11.778859 C131.280069,11.766673 131.457375,11.7520499 131.630416,11.7337709 C131.544505,11.9665233 131.464077,12.1986665 131.388524,12.4308097 C131.31358,12.6629528 131.239246,12.8944867 131.164302,13.1260206 C131.239246,13.0267047 131.355013,12.8944867 131.510994,12.7244921 C131.666365,12.5557161 131.86195,12.3893773 132.099577,12.2236478 C132.336595,12.0597462 132.61017,11.9153422 132.921522,11.7922636 C133.232874,11.6685758 133.582612,11.6064272 133.96769,11.6064272 C134.143777,11.6064272 134.292446,11.6186132 134.416744,11.6435945 C134.54165,11.6685758 134.653761,11.7008687 134.753686,11.7429104 C134.528855,12.0317184 134.37653,12.2876243 134.296102,12.514893 C134.215065,12.7403339 134.161447,13.0023327 134.136466,13.299671 L133.96769,13.3496335 C133.868983,13.3088105 133.74956,13.2661595 133.613687,13.2253364" id="Fill-16" fill="#0054A3"></path>
            <path d="M138.472608,17.7980694 C138.223404,17.8364553 137.947391,17.854125 137.648225,17.854125 C137.337482,17.854125 137.0438,17.8248786 136.769615,17.7676044 C136.49604,17.7097209 136.252929,17.6262469 136.041502,17.5190101 C135.829466,17.4123827 135.661299,17.2734624 135.537002,17.1028585 C135.412095,16.9334732 135.349947,16.7421531 135.349947,16.5252424 C135.349947,16.4259266 135.356649,16.3266107 135.368835,16.2285135 C135.38163,16.1291976 135.405393,16.0170865 135.44317,15.8933987 C135.480337,15.7691015 135.523597,15.627744 135.574169,15.471154 C135.622913,15.3133454 135.68628,15.1238532 135.761833,14.9002402 C135.898317,14.4779956 136.038456,14.0594067 136.18225,13.6456923 C136.324826,13.2325871 136.464356,12.8133889 136.602058,12.3917536 C136.427189,12.3917536 136.245008,12.3941908 136.050642,12.3972373 C135.857494,12.4021117 135.61682,12.4082047 135.332277,12.4161256 C135.38163,12.3046237 135.417579,12.2089637 135.44317,12.1273175 C135.468151,12.0450621 135.498616,11.9146719 135.537002,11.7337099 C135.673485,11.7489424 135.801438,11.7599098 135.920251,11.7666121 C136.038456,11.774533 136.146911,11.7769702 136.246836,11.7769702 L136.789722,11.7769702 C136.838466,11.5953989 136.888429,11.3864091 136.939,11.1493916 C136.987744,10.9135926 137.0438,10.6619518 137.107167,10.3981251 C137.418519,10.3231812 137.682346,10.2585955 137.901694,10.2061957 C138.118605,10.151968 138.328204,10.0977404 138.528054,10.0435127 C138.727295,9.98928503 138.933238,9.92835507 139.145274,9.85706701 C139.356092,9.78638825 139.612607,9.70169559 139.911773,9.60237975 L140.059833,9.71388159 C139.961127,9.91312257 139.877653,10.092866 139.807583,10.255549 C139.739951,10.4157948 139.674147,10.5760406 139.612607,10.7338492 C139.549849,10.8898299 139.494403,11.0525129 139.443222,11.2170238 C139.394478,11.3839719 139.337813,11.5704176 139.275665,11.7769702 L139.969048,11.7769702 C140.091517,11.7769702 140.235312,11.774533 140.397995,11.7666121 C140.559459,11.7599098 140.74103,11.7489424 140.938443,11.7337099 C140.865327,11.8543513 140.813537,11.9749926 140.790384,12.0950246 C140.765402,12.2144474 140.745905,12.3229027 140.734328,12.4161256 C140.559459,12.4100326 140.397995,12.4039396 140.247498,12.4008931 C140.098219,12.3972373 139.955034,12.3948001 139.817332,12.3948001 L139.089828,12.3948001 C139.039256,12.5440785 138.955782,12.7902355 138.836969,13.1332712 C138.718765,13.4763069 138.596905,13.836403 138.472608,14.2129502 C138.347092,14.5888881 138.234371,14.9361889 138.134446,15.2548526 C138.03513,15.5729071 137.972982,15.7825061 137.94861,15.8812127 C137.886461,16.087156 137.842592,16.2510576 137.817611,16.3716989 C137.79202,16.4911216 137.780443,16.6044514 137.780443,16.7122974 C137.780443,16.9359104 137.871229,17.0925004 138.051582,17.1845046 C138.231934,17.274681 138.483575,17.3191599 138.808332,17.3191599 C139.006354,17.3191599 139.200111,17.3039274 139.387776,17.2698066 L139.220218,17.6810839 C138.971015,17.7212976 138.720593,17.7609021 138.472608,17.7980694" id="Fill-18" fill="#0054A3"></path>
            <path d="M147.03016,12.4580454 C146.868696,12.2606323 146.557953,12.1600978 146.096713,12.1600978 C145.784752,12.1600978 145.514832,12.2191999 145.282689,12.3337482 C145.052983,12.4513431 144.853133,12.6054959 144.684357,12.7943788 C144.517409,12.9850896 144.376051,13.2032188 144.26394,13.4469387 C144.151829,13.6912679 144.051904,13.9386435 143.965992,14.1866285 C144.065308,14.1939401 144.170717,14.1994238 144.283437,14.2030796 C144.395549,14.2061261 144.500957,14.2073447 144.600883,14.2073447 L145.291828,14.2073447 L146.058327,14.2073447 C146.196029,14.2073447 146.351401,14.2061261 146.527488,14.2030796 C146.701139,14.1994238 146.888194,14.1939401 147.086216,14.1866285 C147.123992,14.0787824 147.165425,13.9343784 147.208685,13.7515885 C147.251945,13.5700172 147.27388,13.3701669 147.27388,13.1563028 C147.27388,12.8894295 147.193453,12.6578957 147.03016,12.4580454 M148.414489,16.7919938 C148.35295,16.9077607 148.270694,17.0814111 148.172597,17.312945 C147.773506,17.5012186 147.330545,17.6255157 146.844324,17.6827899 C146.358712,17.7394548 145.866398,17.7687011 145.367382,17.7687011 C144.644752,17.7687011 144.015346,17.6968038 143.478553,17.5517905 C142.940541,17.4067772 142.499408,17.2057083 142.156372,16.9498024 C141.811509,16.6920687 141.555603,16.3965583 141.386827,16.0602249 C141.218051,15.7251101 141.134577,15.3753721 141.134577,15.0110109 C141.134577,14.604608 141.23633,14.1982052 141.443492,13.7930209 C141.648216,13.3878366 141.95835,13.0222568 142.370846,12.6999373 C142.782123,12.3770085 143.294544,12.1137911 143.9075,11.9108943 C144.518627,11.7079975 145.232117,11.6062445 146.043704,11.6062445 C147.205029,11.6062445 148.082421,11.812797 148.676488,12.2246836 C149.269337,12.6365702 149.565456,13.1758004 149.565456,13.8429835 C149.565456,14.0020107 149.550224,14.1616472 149.519149,14.3249395 C149.487466,14.4870132 149.453954,14.6478683 149.416178,14.8056769 C148.630791,14.7837421 147.9697,14.7672911 147.434126,14.756933 C146.898552,14.7471842 146.425735,14.7410912 146.013239,14.7410912 L145.153517,14.7410912 L144.573464,14.7410912 C144.362037,14.7410912 144.112224,14.7490121 143.825244,14.7624167 C143.796607,14.8617325 143.7765,14.9695785 143.763705,15.0841269 C143.747254,15.2005031 143.740552,15.3156607 143.740552,15.4302091 C143.740552,15.926179 143.91603,16.3222238 144.26394,16.6201713 C144.613069,16.9169002 145.181545,17.0655693 145.966323,17.0655693 C146.314843,17.0655693 146.704794,17.0137789 147.135569,16.9101979 C147.565125,16.8072263 147.96117,16.6305294 148.321266,16.3819351 L148.601544,16.4684557 C148.538786,16.5677715 148.477247,16.6762269 148.414489,16.7919938" id="Fill-20" fill="#0054A3"></path>
            <path d="M155.866772,12.9750971 C155.810717,12.8587208 155.715057,12.7429539 155.577355,12.6265777 C155.439044,12.5102014 155.254426,12.4108856 155.022283,12.3274115 C154.791358,12.2463747 154.487927,12.2031144 154.114426,12.2031144 C153.626377,12.2031144 153.249221,12.2798861 152.979301,12.4328204 C152.7106,12.5869732 152.577163,12.771591 152.577163,12.987283 C152.577163,13.0957384 152.607628,13.1913984 152.670386,13.2742632 C152.733144,13.3565186 152.842209,13.4399927 152.99819,13.5234667 C153.155998,13.6057222 153.364988,13.6952892 153.626987,13.7897307 C153.890204,13.8866093 154.214961,13.9999391 154.602475,14.1327664 C155.102711,14.3155563 155.528002,14.5312484 155.87774,14.7804519 C156.229306,15.0290462 156.404175,15.3605052 156.404175,15.7760476 C156.404175,16.1416274 156.291454,16.4566353 156.067232,16.7216806 C155.841791,16.9879446 155.543234,17.2054645 155.167906,17.3760685 C154.793186,17.5448445 154.373379,17.6667044 153.904218,17.7416482 C153.435667,17.8172014 152.958585,17.8543687 152.472364,17.8543687 C152.024529,17.8543687 151.5968,17.8232944 151.186742,17.7623644 C150.776683,17.6989973 150.373327,17.6015093 149.974235,17.4711192 C150.110718,17.263348 150.219783,17.058014 150.30082,16.8551172 C150.382466,16.6516112 150.447052,16.4426214 150.497014,16.2275386 L150.852236,16.2275386 C150.889403,16.401189 150.974705,16.5565604 151.104486,16.6936528 C151.236704,16.830136 151.394513,16.9446843 151.582177,17.0354699 C151.769841,17.1262556 151.975785,17.1975437 152.200616,17.2475062 C152.426057,17.2968595 152.656982,17.3218408 152.892171,17.3218408 C153.342444,17.3218408 153.713507,17.2408039 154.008408,17.0781209 C154.302091,16.9178751 154.448932,16.7283829 154.448932,16.5139094 C154.448932,16.2726268 154.302091,16.0831346 154.008408,15.9417771 C153.713507,15.8010288 153.304667,15.63469 152.779451,15.4439792 C152.540605,15.3605052 152.303588,15.2721567 152.067789,15.1764967 C151.828943,15.0808367 151.616907,14.9675069 151.428024,14.8346796 C151.241579,14.7030709 151.091082,14.5470902 150.97897,14.3685654 C150.865641,14.1918685 150.810804,13.9725206 150.810804,13.7166147 C150.810804,13.4668019 150.884529,13.2188169 151.034417,12.970832 C151.184304,12.7222377 151.409136,12.4986247 151.708911,12.2993837 C152.009296,12.1001428 152.382797,11.9392876 152.833069,11.8149905 C153.282123,11.6913027 153.807949,11.6279355 154.40689,11.6279355 C154.965009,11.6279355 155.453058,11.6705865 155.871037,11.7558884 C156.287189,11.8417997 156.638755,11.9252737 156.923907,12.0069199 C156.750257,12.2305329 156.622913,12.4559737 156.541876,12.6887262 C156.460839,12.9208694 156.40783,13.1103616 156.382849,13.2608586 L155.988632,13.2608586 C155.96426,13.186524 155.923437,13.0902547 155.866772,12.9750971" id="Fill-22" fill="#0054A3"></path>
            <path d="M12.1604025,17.4505249 C12.1604025,17.4505249 11.8417388,12.4469561 11.8417388,11.5652995 C11.8417388,11.5652995 11.2001462,8.58765211 14.9351531,7.39342479 C14.9351531,7.39342479 20.7375137,6.00544018 23.9430392,8.18246784 C23.9430392,8.18246784 25.6716223,9.10921261 25.3535679,11.2868496 C25.3535679,11.2868496 25.1713873,15.6439514 25.0799923,17.3128231 C25.0799923,17.3128231 25.4449628,21.1124158 18.5744999,21.0210208 C18.5744999,21.0210208 12.6606375,21.529786 12.1604025,17.4505249 Z" id="Stroke-24" stroke="#FEFEFE" stroke-width="1.5"></path>
            <path d="M22.9341608,10.4992688 C22.9341608,11.6069756 21.013039,12.5081298 18.6428634,12.5081298 C16.2739063,12.5081298 14.3521752,11.6069756 14.3521752,10.4992688 C14.3521752,9.38912487 16.2739063,8.48979858 18.6428634,8.48979858 C21.013039,8.48979858 22.9341608,9.38912487 22.9341608,10.4992688 Z" id="Stroke-26" stroke="#FEFEFE" stroke-width="1.5"></path>
            <path d="M25.4590986,10.5929791 C25.1233745,12.3660411 22.182285,13.7515885 18.6069147,13.7515885 C15.1058789,13.7515885 12.2141427,12.4220967 11.7797121,10.7026531" id="Stroke-28" stroke="#FEFEFE" stroke-width="1.5"></path>
            <path d="M2.78382919,31.8020908 C2.78382919,31.8020908 2.46516547,26.798522 2.46516547,25.918084 C2.46516547,25.918084 1.82418223,22.939218 5.55918911,21.7468186 C5.55918911,21.7468186 11.3609404,20.3576154 14.5658566,22.5358616 C14.5658566,22.5358616 16.295049,23.4607785 15.9769946,25.6384155 C15.9769946,25.6384155 15.794814,29.9967359 15.7040283,31.6649983 C15.7040283,31.6649983 16.0677802,35.4652003 9.19792664,35.3719774 C9.19792664,35.3719774 3.2840642,35.8819612 2.78382919,31.8020908 Z" id="Stroke-30" stroke="#FEFEFE" stroke-width="1.5"></path>
            <path d="M13.5578312,24.8505301 C13.5578312,25.9588462 11.6367094,26.859391 9.26714308,26.859391 C6.89635813,26.859391 4.97584562,25.9588462 4.97584562,24.8505301 C4.97584562,23.7409954 6.89635813,22.8416691 9.26714308,22.8416691 C11.6367094,22.8416691 13.5578312,23.7409954 13.5578312,24.8505301 Z" id="Stroke-32" stroke="#FEFEFE" stroke-width="1.5"></path>
            <path d="M16.0830737,24.9450934 C15.7467402,26.7169368 12.8062601,28.1037028 9.23028045,28.1037028 C5.72863534,28.1037028 2.83750849,26.774211 2.40368713,25.0535487" id="Stroke-34" stroke="#FEFEFE" stroke-width="1.5"></path>
            <path d="M4.38860261,48.1419233 C4.38860261,48.1419233 4.0699389,43.1365266 4.0699389,42.2560886 C4.0699389,42.2560886 3.42895566,39.2772226 7.16396254,38.0848232 C7.16396254,38.0848232 12.9657138,36.6974479 16.17063,38.8726477 C16.17063,38.8726477 17.8992131,39.8000017 17.581768,41.9764201 C17.581768,41.9764201 17.3995874,46.3341312 17.3088018,48.0017844 C17.3088018,48.0017844 17.6725537,51.8025956 10.8027001,51.7093728 C10.8027001,51.7093728 4.88883763,52.2199659 4.38860261,48.1419233 Z" id="Stroke-36" stroke="#FEFEFE" stroke-width="1.5"></path>
            <path d="M15.1626047,41.1885347 C15.1626047,42.299288 13.2408736,43.1973957 10.8706979,43.1973957 C8.50113156,43.1973957 6.58061905,42.299288 6.58061905,41.1885347 C6.58061905,40.0796094 8.50113156,39.1796738 10.8706979,39.1796738 C13.2408736,39.1796738 15.1626047,40.0796094 15.1626047,41.1885347 Z" id="Stroke-38" stroke="#FEFEFE" stroke-width="1.5"></path>
            <path d="M17.6878471,41.2837683 C17.3515137,43.0543931 14.4110335,44.4417684 10.8350539,44.4417684 C7.33340877,44.4417684 4.44289121,43.1128858 4.00846056,41.3934422" id="Stroke-40" stroke="#FEFEFE" stroke-width="1.5"></path>
            <path d="M26.8297182,10.9493585 C26.8297182,10.9493585 26.5110544,5.94518044 26.5110544,5.06474244 C26.5110544,5.06474244 25.8694619,2.08587643 29.6044688,0.892867712 C29.6044688,0.892867712 35.4062201,-0.495726198 38.6123549,1.68191076 C38.6123549,1.68191076 40.340938,2.60682764 40.0228836,4.7850739 C40.0228836,4.7850739 39.840703,9.14278502 39.749308,10.8110475 C39.749308,10.8110475 40.1130599,14.6112494 33.2432063,14.5186359 C33.2432063,14.5186359 27.3293439,15.0286197 26.8297182,10.9493585 Z" id="Stroke-42" stroke="#FEFEFE" stroke-width="1.5"></path>
            <path d="M37.6034156,3.99718852 C37.6034156,5.10611389 35.6816845,6.00544018 33.3121181,6.00544018 C30.9419424,6.00544018 29.0208206,5.10611389 29.0208206,3.99718852 C29.0208206,2.88704455 30.9419424,1.98893686 33.3121181,1.98893686 C35.6816845,1.98893686 37.6034156,2.88704455 37.6034156,3.99718852 Z" id="Stroke-44" stroke="#FEFEFE" stroke-width="1.5"></path>
            <path d="M40.1284143,4.09205647 C39.7920808,5.86389987 36.8516007,7.24944728 33.2756211,7.24944728 C29.7739759,7.24944728 26.8828491,5.91995543 26.4490277,4.19990251" id="Stroke-46" stroke="#FEFEFE" stroke-width="1.5"></path>
            <polygon id="Fill-48" fill="#EE3D42" points="53.7237174 23.9975715 68.2372352 23.9975715 76.7808349 52.6358738 85.3737879 23.9975715 100.448471 23.9975715 84.4683686 67.4960831 69.578913 67.4960831 60.8196212 35.8100639 51.9195812 67.4960831 36.8869401 67.4960831 21.3735616 23.9975715 36.9082656 23.9975715 45.5414324 52.5170604"></polygon>
            <polygon id="Stroke-50" stroke="#FEFEFE" stroke-width="1.5" points="53.7237174 23.9975715 68.2372352 23.9975715 76.7808349 52.6358738 85.3737879 23.9975715 100.448471 23.9975715 84.4683686 67.4960831 69.578913 67.4960831 60.8196212 35.8100639 51.9195812 67.4960831 36.8869401 67.4960831 21.3735616 23.9975715 36.9082656 23.9975715 45.5414324 52.5170604"></polygon>
            <path d="M119.378436,47.0316575 C118.446817,47.4849764 117.509105,47.8536027 116.560425,48.1332712 C115.612964,48.4129398 114.310891,48.6731107 112.65847,48.9119562 L109.346927,49.3920843 C106.244373,49.8192034 104.017382,50.3401546 102.669612,50.9518914 C100.390831,51.9919659 99.2514406,53.6060007 99.2514406,55.7915586 C99.2514406,57.7370524 99.9472608,59.1439253 101.345603,60.011568 C102.7409,60.8773828 104.441455,61.3099856 106.442395,61.3099856 C109.616846,61.3099856 112.539657,60.5904027 115.213873,59.1506276 C117.88687,57.7108525 119.275464,55.0853803 119.378436,51.2699459 L119.378436,47.0316575 Z M110.508252,41.7027227 C113.209277,41.4388959 115.140148,41.1049997 116.302082,40.7052992 C118.386496,40.0149627 119.429617,38.9377209 119.429617,37.4717459 C119.429617,35.6883258 118.628997,34.4581498 117.027149,33.7775621 C115.423472,33.0994116 113.069138,32.7563759 109.968412,32.7563759 C106.485046,32.7563759 104.018601,33.4247776 102.573342,34.7567066 C101.537533,35.7431628 100.849634,37.0763104 100.50477,38.7543217 L86.5944589,38.7543217 C86.9009366,34.9504639 88.262112,31.8235381 90.6779851,29.3753721 C94.5220566,25.5453145 101.125037,23.6278485 110.481442,23.6278485 C116.57322,23.6278485 121.984411,24.570435 126.714404,26.453171 C131.443178,28.3383441 133.809698,31.9003099 133.809698,37.1390683 L133.809698,57.0887576 C133.809698,58.4730864 133.8426,60.1462232 133.911451,62.1154797 C134.010158,63.5857198 134.29531,64.5849712 134.76508,65.1126247 C135.231804,65.6360131 135.936763,66.0704437 136.874476,66.4122608 L136.874476,68.1122069 L121.203288,68.1122069 C120.763983,67.24822 120.459334,66.4360235 120.291167,65.674399 C120.121782,64.913993 119.985908,64.0481782 119.885983,63.0781731 C117.870419,64.7823843 115.545332,66.2331268 112.914376,67.4304006 C109.76978,68.8391014 106.215126,69.5428425 102.252851,69.5428425 C97.192617,69.5428425 93.01404,68.4192939 89.7189475,66.168541 C86.4171527,63.9202253 84.770825,60.729323 84.770825,56.6019271 C84.770825,51.2522762 87.4194506,47.3765211 92.7160925,44.9801455 C95.6212332,43.675635 99.8936424,42.7434065 105.535148,42.1840694 L110.508252,41.7027227 Z" id="Fill-52" fill="#0054A3"></path>
            <path d="M119.378436,47.0316575 C118.446817,47.4849764 117.509105,47.8536027 116.560425,48.1332712 C115.612964,48.4129398 114.310891,48.6731107 112.65847,48.9119562 L109.346927,49.3920843 C106.244373,49.8192034 104.017382,50.3401546 102.669612,50.9518914 C100.390831,51.9919659 99.2514406,53.6060007 99.2514406,55.7915586 C99.2514406,57.7370524 99.9472608,59.1439253 101.345603,60.011568 C102.7409,60.8773828 104.441455,61.3099856 106.442395,61.3099856 C109.616846,61.3099856 112.539657,60.5904027 115.213873,59.1506276 C117.88687,57.7108525 119.275464,55.0853803 119.378436,51.2699459 L119.378436,47.0316575 Z M110.508252,41.7027227 C113.209277,41.4388959 115.140148,41.1049997 116.302082,40.7052992 C118.386496,40.0149627 119.429617,38.9377209 119.429617,37.4717459 C119.429617,35.6883258 118.628997,34.4581498 117.027149,33.7775621 C115.423472,33.0994116 113.069138,32.7563759 109.968412,32.7563759 C106.485046,32.7563759 104.018601,33.4247776 102.573342,34.7567066 C101.537533,35.7431628 100.849634,37.0763104 100.50477,38.7543217 L86.5944589,38.7543217 C86.9009366,34.9504639 88.262112,31.8235381 90.6779851,29.3753721 C94.5220566,25.5453145 101.125037,23.6278485 110.481442,23.6278485 C116.57322,23.6278485 121.984411,24.570435 126.714404,26.453171 C131.443178,28.3383441 133.809698,31.9003099 133.809698,37.1390683 L133.809698,57.0887576 C133.809698,58.4730864 133.8426,60.1462232 133.911451,62.1154797 C134.010158,63.5857198 134.29531,64.5849712 134.76508,65.1126247 C135.231804,65.6360131 135.936763,66.0704437 136.874476,66.4122608 L136.874476,68.1122069 L121.203288,68.1122069 C120.763983,67.24822 120.459334,66.4360235 120.291167,65.674399 C120.121782,64.913993 119.985908,64.0481782 119.885983,63.0781731 C117.870419,64.7823843 115.545332,66.2331268 112.914376,67.4304006 C109.76978,68.8391014 106.215126,69.5428425 102.252851,69.5428425 C97.192617,69.5428425 93.01404,68.4192939 89.7189475,66.168541 C86.4171527,63.9202253 84.770825,60.729323 84.770825,56.6019271 C84.770825,51.2522762 87.4194506,47.3765211 92.7160925,44.9801455 C95.6212332,43.675635 99.8936424,42.7434065 105.535148,42.1840694 L110.508252,41.7027227 Z" id="Stroke-54" stroke="#FEFEFE" stroke-width="1.5"></path>
            <path d="M161.677724,23.9446234 C161.86356,23.9592466 162.278493,23.9817906 162.924351,24.0116463 L162.924351,35.6480511 C162.01223,35.5749352 161.197596,35.5280191 160.487152,35.5060843 C159.776709,35.4804937 159.200921,35.4695263 158.763444,35.4695263 C152.944632,35.4695263 149.035975,36.9568268 147.041737,39.9302091 C145.924281,41.6027366 145.366163,44.1788556 145.366163,47.656738 L145.366163,68.4064377 L130.884938,68.4064377 L130.884938,24.9079261 L144.567371,24.9079261 L144.567371,32.5381857 C146.805938,29.6397472 148.755697,27.6583048 150.416039,26.5950769 C153.126813,24.8134847 156.651002,23.9232979 160.990434,23.9232979 C161.261572,23.9232979 161.490669,23.9300002 161.677724,23.9446234" id="Fill-56" fill="#EE3D42"></path>
            <path d="M161.677724,23.9446234 C161.86356,23.9592466 162.278493,23.9817906 162.924351,24.0116463 L162.924351,35.6480511 C162.01223,35.5749352 161.197596,35.5280191 160.487152,35.5060843 C159.776709,35.4804937 159.200921,35.4695263 158.763444,35.4695263 C152.944632,35.4695263 149.035975,36.9568268 147.041737,39.9302091 C145.924281,41.6027366 145.366163,44.1788556 145.366163,47.656738 L145.366163,68.4064377 L130.884938,68.4064377 L130.884938,24.9079261 L144.567371,24.9079261 L144.567371,32.5381857 C146.805938,29.6397472 148.755697,27.6583048 150.416039,26.5950769 C153.126813,24.8134847 156.651002,23.9232979 160.990434,23.9232979 C161.261572,23.9232979 161.490669,23.9300002 161.677724,23.9446234 Z" id="Stroke-58" stroke="#FEFEFE" stroke-width="1.5"></path>
            <mask id="mask-4" fill="white">
                <use xlink:href="#path-3"></use>
            </mask>
            <g id="Clip-61"></g>
            <path d="M158.006023,67.4957784 L172.715126,67.4957784 L172.715126,23.9972669 L158.006023,23.9972669 L158.006023,67.4957784 Z M158.005414,18.8962102 L172.714517,18.8962102 L172.714517,8.42417701 L158.005414,8.42417701 L158.005414,18.8962102 Z" id="Fill-60" fill="#0054A3" mask="url(#mask-4)"></path>
            <path d="M158.006023,67.4957784 L172.715126,67.4957784 L172.715126,23.9972669 L158.006023,23.9972669 L158.006023,67.4957784 Z M158.005414,18.8962102 L172.714517,18.8962102 L172.714517,8.42417701 L158.005414,8.42417701 L158.005414,18.8962102 Z" id="Stroke-62" stroke="#FEFEFE" stroke-width="1.5" mask="url(#mask-4)"></path>
        </g>
    </g>
</svg>